<svg width="60" height="60" viewBox="0 0 60 60" fill="none" xmlns="http://www.w3.org/2000/svg">
<circle cx="30" cy="30" r="30" fill="#0866FF"/>
<path d="M30.0017 18.3333C36.5741 18.3333 41.6683 23.1476 41.6683 29.65C41.6683 36.1524 36.5741 40.9666 30.0017 40.9666C28.861 40.9693 27.7251 40.8185 26.6247 40.5181C26.4177 40.4612 26.1975 40.4776 26.0011 40.5641L23.6859 41.5861C23.4018 41.7117 23.0739 41.6876 22.8111 41.5221C22.5483 41.3565 22.3851 41.0712 22.3757 40.7607L22.3121 38.6852C22.3035 38.43 22.1902 38.1895 21.9989 38.0202C19.7291 35.9902 18.335 33.0514 18.335 29.65C18.335 23.1476 23.4292 18.3333 30.0017 18.3333ZM22.9958 32.9592C22.6668 33.4813 23.3085 34.0693 23.7996 33.6966L27.481 30.9024C27.7305 30.7142 28.0744 30.7142 28.324 30.9024L31.0499 32.9441C31.4408 33.2374 31.9367 33.3538 32.4173 33.2651C32.898 33.1765 33.3198 32.8909 33.5804 32.4774L37.0075 27.0407C37.3365 26.5186 36.6948 25.9306 36.2036 26.3034L32.5222 29.0976C32.2727 29.2857 31.9288 29.2857 31.6793 29.0976L28.9534 27.0559C28.5623 26.7626 28.0665 26.6462 27.5859 26.7348C27.1052 26.8235 26.6835 27.1091 26.4229 27.5226L22.9958 32.9592Z" fill="white"/>
</svg>
