<svg width="60" height="60" viewBox="0 0 60 60" fill="none" xmlns="http://www.w3.org/2000/svg">
<circle cx="30" cy="30" r="30" fill="#29A9EB"/>
<path d="M41.6663 30C41.6663 36.4432 36.4429 41.6666 29.9997 41.6666C23.5563 41.6666 18.333 36.4432 18.333 30C18.333 23.5567 23.5563 18.3333 29.9997 18.3333C36.4429 18.3333 41.6663 23.5567 41.6663 30ZM30.4178 26.9462C29.283 27.4182 27.0151 28.3951 23.614 29.8769C23.0618 30.0965 22.7725 30.3114 22.7461 30.5214C22.7016 30.8765 23.1462 31.0163 23.7517 31.2067C23.834 31.2326 23.9194 31.2594 24.0069 31.2879C24.6025 31.4814 25.4038 31.708 25.8204 31.717C26.1983 31.7251 26.62 31.5694 27.0856 31.2496C30.2633 29.1046 31.9037 28.0204 32.0067 27.997C32.0794 27.9805 32.1801 27.9598 32.2482 28.0204C32.3164 28.081 32.3097 28.1958 32.3026 28.2266C32.2585 28.4145 30.5131 30.0371 29.61 30.8767C29.3406 31.1271 29.0781 31.3828 28.8135 31.6379C28.2602 32.1713 27.8452 32.5713 28.8365 33.2246C29.8415 33.887 30.854 34.5479 31.8341 35.2466C32.3175 35.5912 32.7518 35.9009 33.2883 35.8515C33.6001 35.8228 33.9221 35.5296 34.0856 34.6553C34.4721 32.5892 35.2318 28.1124 35.4074 26.2676C35.4228 26.106 35.4034 25.8991 35.3879 25.8083C35.3724 25.7175 35.3399 25.5882 35.2219 25.4924C35.082 25.379 34.8663 25.355 34.7698 25.3568C34.3309 25.3645 33.6578 25.5986 30.4178 26.9462Z" fill="white"/>
</svg>
