<svg width="60" height="60" viewBox="0 0 60 60" fill="none" xmlns="http://www.w3.org/2000/svg">
<circle cx="30" cy="30" r="30" fill="#16C456"/>
<path d="M30.0017 18.3333C36.4449 18.3333 41.6683 23.5567 41.6683 30C41.6683 36.4432 36.4449 41.6666 30.0017 41.6666C27.8621 41.6666 25.8571 41.0908 24.1332 40.0855L18.3398 41.6666L19.9171 35.8701C18.9112 34.1458 18.335 32.1402 18.335 30C18.335 23.5567 23.5583 18.3333 30.0017 18.3333ZM25.7915 24.5264C25.6406 24.537 25.4926 24.5738 25.3578 24.6428C25.2567 24.6945 25.1629 24.7692 25.0154 24.9085C24.8762 25.04 24.7955 25.1548 24.7105 25.2655C24.2791 25.827 24.0473 26.5164 24.0516 27.2245C24.054 27.7968 24.2027 28.3531 24.4375 28.8725C24.9136 29.9258 25.6988 31.0392 26.7361 32.0719C26.9852 32.3199 27.2293 32.5706 27.4925 32.8023C28.7799 33.9358 30.3141 34.7532 31.973 35.1895C31.973 35.1895 32.6263 35.2899 32.6359 35.2905C32.8523 35.3021 33.0683 35.2865 33.285 35.2754C33.6248 35.2579 33.9567 35.166 34.257 35.006C34.45 34.9032 34.5414 34.8521 34.7034 34.7499C34.7034 34.7499 34.7531 34.7163 34.849 34.6449C35.0065 34.5276 35.1038 34.445 35.2349 34.3089C35.3315 34.2086 35.4145 34.0901 35.4787 33.9565C35.5699 33.7661 35.6617 33.4027 35.6983 33.1009C35.7261 32.8703 35.7177 32.7443 35.7147 32.6663C35.7097 32.5407 35.606 32.4116 35.4923 32.3568L34.8139 32.0518C34.8139 32.0518 33.7995 31.6103 33.1791 31.3273C33.1144 31.2978 33.0437 31.2841 32.9727 31.2798C32.817 31.2702 32.6426 31.3108 32.5317 31.4277C32.5258 31.4254 32.4486 31.4921 31.6045 32.5147C31.558 32.5704 31.4489 32.6914 31.2602 32.68C31.2318 32.6781 31.2034 32.674 31.1758 32.6667C31.0994 32.6466 31.0249 32.62 30.9521 32.5892C30.8078 32.5279 30.7572 32.5047 30.6586 32.4622C29.9851 32.168 29.367 31.7744 28.8206 31.2926C28.6741 31.1636 28.5378 31.0247 28.3974 30.8885C27.9071 30.4133 27.5058 29.9079 27.2072 29.4094C27.1909 29.3822 27.1658 29.3429 27.1387 29.2989C27.0899 29.2195 27.036 29.125 27.0191 29.0601C26.9758 28.8885 27.0908 28.7506 27.0908 28.7506C27.0908 28.7506 27.3748 28.4401 27.5067 28.2713C27.6336 28.1088 27.7432 27.9499 27.813 27.8366C27.9504 27.6157 27.9939 27.3874 27.9217 27.2112C27.5944 26.4132 27.2567 25.6196 26.9087 24.8304C26.84 24.6747 26.6356 24.5615 26.4498 24.5401C26.3869 24.5328 26.324 24.5255 26.2608 24.5213C26.1044 24.5137 25.9477 24.5154 25.7915 24.5264Z" fill="white"/>
</svg>
